<svg version="1.1" xmlns="http://www.w3.org/2000/svg" xmlns:xlink="http://www.w3.org/1999/xlink" width="680" height="385"><style xmlns="http://www.w3.org/1999/xhtml"></style><defs/><g transform="translate(0,0)"><g><rect fill="#FFFFFF" stroke="none" x="0" y="0" width="680" height="385"/></g><g transform="translate(0,0) matrix(1,0,0,1,30,20)"><g><g transform="translate(0,0) scale(6.3,3.45)"><g><path fill="#434343" stroke="none" d="M 0 0 L 100 0 Q 100 0 100 0 L 100 100 Q 100 100 100 100 L 0 100 Q 0 100 0 100 L 0 0 Q 0 0 0 0 Z"/><g transform="scale(0.15873015873015872,0.2898550724637681)"><path fill="none" stroke="none" d="M 0 0 L 630 0 Q 630 0 630 0 L 630 345 Q 630 345 630 345 L 0 345 Q 0 345 0 345 L 0 0 Q 0 0 0 0 Z"/><path fill="none" stroke="#333333" d="M 0 0 M 0 0 L 630 0 Q 630 0 630 0 L 630 345 Q 630 345 630 345 L 0 345 Q 0 345 0 345 L 0 0 Q 0 0 0 0 Z" stroke-miterlimit="10" stroke-width="2"/></g></g></g></g></g><g transform="translate(0,0) matrix(1,0,0,1,60,195)"><g><g transform="translate(0,0) scale(2.6,1.3500000000000003)"><g><path fill="#EEEEEE" stroke="none" d="M 0 0 L 100 0 Q 100 0 100 0 L 100 100 Q 100 100 100 100 L 0 100 Q 0 100 0 100 L 0 0 Q 0 0 0 0 Z"/><g transform="scale(0.3846153846153846,0.7407407407407406)"><path fill="none" stroke="none" d="M 0 0 L 260 0 Q 260 0 260 0 L 260 135.00000000000003 Q 260 135.00000000000003 260 135.00000000000003 L 0 135.00000000000003 Q 0 135.00000000000003 0 135.00000000000003 L 0 0 Q 0 0 0 0 Z"/><path fill="none" stroke="#333333" d="M 0 0 M 0 0 L 260 0 Q 260 0 260 0 L 260 135.00000000000003 Q 260 135.00000000000003 260 135.00000000000003 L 0 135.00000000000003 Q 0 135.00000000000003 0 135.00000000000003 L 0 0 Q 0 0 0 0 Z" stroke-miterlimit="10" stroke-width="2"/></g></g></g></g></g><g transform="matrix(1,0,0,1,73,245)"><g transform="translate(834,53) matrix(1,0,0,1,0,0) translate(-834,-53)"><g/></g><g transform="translate(834,53) matrix(1,0,0,1,0,0) translate(-834,-53)"><g/></g><g transform="translate(834,53) matrix(1,0,0,1,0,0) translate(-834,-53)"><g/></g><g transform="translate(834,53) matrix(1,0,0,1,0,0) translate(-834,-53)"><g/></g><g transform="translate(834,53) matrix(1,0,0,1,0,0) translate(-834,-53)"><g/></g><g transform="translate(834,53) matrix(1,0,0,1,0,0) translate(-834,-53)"><g/><text fill="rgb(0, 0, 0)" stroke="none" font-family="&quot;Helvetica&quot;" font-size="18px" font-style="normal" font-weight="700" text-decoration="" line-height="18px" x="69" y="16">compute</text><text fill="rgb(0, 0, 0)" stroke="none" font-family="&quot;Helvetica&quot;" font-size="18px" font-style="normal" font-weight="700" text-decoration="" line-height="18px" x="144" y="16">++</text></g><g transform="translate(834,53) matrix(1,0,0,1,0,0) translate(-834,-53)"><g/></g><g transform="translate(834,53) matrix(1,0,0,1,0,0) translate(-834,-53)"><g/></g><g transform="translate(834,53) matrix(1,0,0,1,0,0) translate(-834,-53)"><g/></g><g transform="translate(834,53) matrix(1,0,0,1,0,0) translate(-834,-53)"><g/></g><g transform="translate(834,53) matrix(1,0,0,1,0,0) translate(-834,-53)"><g/></g><g transform="translate(834,53) matrix(1,0,0,1,0,0) translate(-834,-53)"><g/></g><g transform="translate(834,53) matrix(1,0,0,1,0,0) translate(-834,-53)"><g/></g><g transform="translate(834,53) matrix(1,0,0,1,0,0) translate(-834,-53)"><g/><text fill="rgb(0, 0, 0)" stroke="none" font-family="&quot;Helvetica&quot;" font-size="18px" font-style="normal" font-weight="700" text-decoration="" line-height="18px" x="15" y="35">(</text><text fill="rgb(0, 0, 0)" stroke="none" font-family="&quot;Helvetica&quot;" font-size="18px" font-style="normal" font-weight="700" text-decoration="" line-height="18px" x="21" y="35">SYCL</text><text fill="rgb(0, 0, 0)" stroke="none" font-family="&quot;Helvetica&quot;" font-size="18px" font-style="normal" font-weight="700" text-decoration="" line-height="18px" x="72" y="35">Device</text><text fill="rgb(0, 0, 0)" stroke="none" font-family="&quot;Helvetica&quot;" font-size="18px" font-style="normal" font-weight="700" text-decoration="" line-height="18px" x="135" y="35">Compiler</text><text fill="rgb(0, 0, 0)" stroke="none" font-family="&quot;Helvetica&quot;" font-size="18px" font-style="normal" font-weight="700" text-decoration="" line-height="18px" x="213" y="35">)</text></g></g><g transform="translate(0,0) matrix(1,0,0,1,58.80000000000001,44)"><g><g transform="translate(0,0) scale(2.6,1.3)"><g><path fill="#EEEEEE" stroke="none" d="M 0 0 L 100 0 Q 100 0 100 0 L 100 100 Q 100 100 100 100 L 0 100 Q 0 100 0 100 L 0 0 Q 0 0 0 0 Z"/><g transform="scale(0.3846153846153846,0.7692307692307692)"><path fill="none" stroke="none" d="M 0 0 L 260 0 Q 260 0 260 0 L 260 130 Q 260 130 260 130 L 0 130 Q 0 130 0 130 L 0 0 Q 0 0 0 0 Z"/><path fill="none" stroke="#333333" d="M 0 0 M 0 0 L 260 0 Q 260 0 260 0 L 260 130 Q 260 130 260 130 L 0 130 Q 0 130 0 130 L 0 0 Q 0 0 0 0 Z" stroke-miterlimit="10" stroke-width="2"/></g></g></g></g></g><g transform="matrix(1,0,0,1,72,91)"><g transform="translate(637,35) matrix(1,0,0,1,0,0) translate(-637,-35)"><g/></g><g transform="translate(637,35) matrix(1,0,0,1,0,0) translate(-637,-35)"><g/></g><g transform="translate(637,35) matrix(1,0,0,1,0,0) translate(-637,-35)"><g/></g><g transform="translate(637,35) matrix(1,0,0,1,0,0) translate(-637,-35)"><g/></g><g transform="translate(637,35) matrix(1,0,0,1,0,0) translate(-637,-35)"><g/></g><g transform="translate(637,35) matrix(1,0,0,1,0,0) translate(-637,-35)"><g/><text fill="rgb(0, 0, 0)" stroke="none" font-family="&quot;Helvetica&quot;" font-size="18px" font-style="normal" font-weight="700" text-decoration="" line-height="18px" x="22" y="16">ComputeCpp</text><text fill="rgb(0, 0, 0)" stroke="none" font-family="&quot;Helvetica&quot;" font-size="18px" font-style="normal" font-weight="700" text-decoration="" line-height="18px" x="140" y="16">Package</text><text fill="rgb(0, 0, 0)" stroke="none" font-family="&quot;Helvetica&quot;" font-size="18px" font-style="normal" font-weight="700" text-decoration="" line-height="18px" x="52" y="35">Documentation</text></g><g transform="translate(637,35) matrix(1,0,0,1,0,0) translate(-637,-35)"><g/></g><g transform="translate(637,35) matrix(1,0,0,1,0,0) translate(-637,-35)"><g/></g><g transform="translate(637,35) matrix(1,0,0,1,0,0) translate(-637,-35)"><g/></g></g><g transform="translate(0,0) matrix(1,0,0,1,345,192.5)"><g><g transform="translate(0,0) scale(2.8,1.3500000000000003)"><g><path fill="#EEEEEE" stroke="none" d="M 0 0 L 100 0 Q 100 0 100 0 L 100 100 Q 100 100 100 100 L 0 100 Q 0 100 0 100 L 0 0 Q 0 0 0 0 Z"/><g transform="scale(0.35714285714285715,0.7407407407407406)"><path fill="none" stroke="none" d="M 0 0 L 280 0 Q 280 0 280 0 L 280 135.00000000000003 Q 280 135.00000000000003 280 135.00000000000003 L 0 135.00000000000003 Q 0 135.00000000000003 0 135.00000000000003 L 0 0 Q 0 0 0 0 Z"/><path fill="none" stroke="#333333" d="M 0 0 M 0 0 L 280 0 Q 280 0 280 0 L 280 135.00000000000003 Q 280 135.00000000000003 280 135.00000000000003 L 0 135.00000000000003 Q 0 135.00000000000003 0 135.00000000000003 L 0 0 Q 0 0 0 0 Z" stroke-miterlimit="10" stroke-width="2"/></g></g></g></g></g><g transform="matrix(1,0,0,1,359,242)"><g transform="translate(913,53) matrix(1,0,0,1,0,0) translate(-913,-53)"><g/></g><g transform="translate(913,53) matrix(1,0,0,1,0,0) translate(-913,-53)"><g/></g><g transform="translate(913,53) matrix(1,0,0,1,0,0) translate(-913,-53)"><g/></g><g transform="translate(913,53) matrix(1,0,0,1,0,0) translate(-913,-53)"><g/></g><g transform="translate(913,53) matrix(1,0,0,1,0,0) translate(-913,-53)"><g/></g><g transform="translate(913,53) matrix(1,0,0,1,0,0) translate(-913,-53)"><g/><text fill="rgb(0, 0, 0)" stroke="none" font-family="&quot;Helvetica&quot;" font-size="18px" font-style="normal" font-weight="700" text-decoration="" line-height="18px" x="47" y="16">libComputeCpp</text><text fill="rgb(0, 0, 0)" stroke="none" font-family="&quot;Helvetica&quot;" font-size="18px" font-style="normal" font-weight="700" text-decoration="" line-height="18px" x="181" y="16">.</text><text fill="rgb(0, 0, 0)" stroke="none" font-family="&quot;Helvetica&quot;" font-size="18px" font-style="normal" font-weight="700" text-decoration="" line-height="18px" x="186" y="16">so</text></g><g transform="translate(913,53) matrix(1,0,0,1,0,0) translate(-913,-53)"><g/></g><g transform="translate(913,53) matrix(1,0,0,1,0,0) translate(-913,-53)"><g/></g><g transform="translate(913,53) matrix(1,0,0,1,0,0) translate(-913,-53)"><g/></g><g transform="translate(913,53) matrix(1,0,0,1,0,0) translate(-913,-53)"><g/></g><g transform="translate(913,53) matrix(1,0,0,1,0,0) translate(-913,-53)"><g/></g><g transform="translate(913,53) matrix(1,0,0,1,0,0) translate(-913,-53)"><g/></g><g transform="translate(913,53) matrix(1,0,0,1,0,0) translate(-913,-53)"><g/></g><g transform="translate(913,53) matrix(1,0,0,1,0,0) translate(-913,-53)"><g/><text fill="rgb(0, 0, 0)" stroke="none" font-family="&quot;Helvetica&quot;" font-size="18px" font-style="normal" font-weight="700" text-decoration="" line-height="18px" x="26" y="35">(</text><text fill="rgb(0, 0, 0)" stroke="none" font-family="&quot;Helvetica&quot;" font-size="18px" font-style="normal" font-weight="700" text-decoration="" line-height="18px" x="32" y="35">SYCL</text><text fill="rgb(0, 0, 0)" stroke="none" font-family="&quot;Helvetica&quot;" font-size="18px" font-style="normal" font-weight="700" text-decoration="" line-height="18px" x="83" y="35">Runtime</text><text fill="rgb(0, 0, 0)" stroke="none" font-family="&quot;Helvetica&quot;" font-size="18px" font-style="normal" font-weight="700" text-decoration="" line-height="18px" x="160" y="35">Library</text><text fill="rgb(0, 0, 0)" stroke="none" font-family="&quot;Helvetica&quot;" font-size="18px" font-style="normal" font-weight="700" text-decoration="" line-height="18px" x="221" y="35">)</text></g></g><g transform="translate(0,0) matrix(1,0,0,1,348.8,44)"><g><g transform="translate(0,0) scale(2.8,1.3)"><g><path fill="#EEEEEE" stroke="none" d="M 0 0 L 100 0 Q 100 0 100 0 L 100 100 Q 100 100 100 100 L 0 100 Q 0 100 0 100 L 0 0 Q 0 0 0 0 Z"/><g transform="scale(0.35714285714285715,0.7692307692307692)"><path fill="none" stroke="none" d="M 0 0 L 280 0 Q 280 0 280 0 L 280 130 Q 280 130 280 130 L 0 130 Q 0 130 0 130 L 0 0 Q 0 0 0 0 Z"/><path fill="none" stroke="#333333" d="M 0 0 M 0 0 L 280 0 Q 280 0 280 0 L 280 130 Q 280 130 280 130 L 0 130 Q 0 130 0 130 L 0 0 Q 0 0 0 0 Z" stroke-miterlimit="10" stroke-width="2"/></g></g></g></g></g><g transform="matrix(1,0,0,1,362,100)"><g transform="translate(808,-21) matrix(1,0,0,1,0,0) translate(-808,21)"><g/></g><g transform="translate(808,-21) matrix(1,0,0,1,0,0) translate(-808,21)"><g/></g><g transform="translate(808,-21) matrix(1,0,0,1,0,0) translate(-808,21)"><g/></g><g transform="translate(808,-21) matrix(1,0,0,1,0,0) translate(-808,21)"><g/></g><g transform="translate(808,-21) matrix(1,0,0,1,0,0) translate(-808,21)"><g/></g><g transform="translate(808,-21) matrix(1,0,0,1,0,0) translate(-808,21)"><g/><text fill="rgb(0, 0, 0)" stroke="none" font-family="&quot;Helvetica&quot;" font-size="18px" font-style="normal" font-weight="700" text-decoration="" line-height="18px" x="49" y="16">SYCL</text><text fill="rgb(0, 0, 0)" stroke="none" font-family="&quot;Helvetica&quot;" font-size="18px" font-style="normal" font-weight="700" text-decoration="" line-height="18px" x="100" y="16">API</text><text fill="rgb(0, 0, 0)" stroke="none" font-family="&quot;Helvetica&quot;" font-size="18px" font-style="normal" font-weight="700" text-decoration="" line-height="18px" x="135" y="16">headers</text></g><g transform="translate(808,-21) matrix(1,0,0,1,0,0) translate(-808,21)"><g/></g><g transform="translate(808,-21) matrix(1,0,0,1,0,0) translate(-808,21)"><g/></g><g transform="translate(808,-21) matrix(1,0,0,1,0,0) translate(-808,21)"><g/></g></g><g transform="matrix(1,0,0,1,422,336)"><g transform="translate(630,41) matrix(1,0,0,1,0,0) translate(-630,-41)"><g/></g><g transform="translate(630,41) matrix(1,0,0,1,0,0) translate(-630,-41)"><g/></g><g transform="translate(630,41) matrix(1,0,0,1,0,0) translate(-630,-41)"><g/></g><g transform="translate(630,41) matrix(1,0,0,1,0,0) translate(-630,-41)"><g/></g><g transform="translate(630,41) matrix(1,0,0,1,0,0) translate(-630,-41)"><g/><text fill="rgb(255, 255, 255)" stroke="none" font-family="&quot;Arial&quot;" font-size="20px" font-style="normal" font-weight="700" text-decoration="" line-height="22.75px" x="0" y="18">ComputeCpp</text><text fill="rgb(255, 255, 255)" stroke="none" font-family="&quot;Arial&quot;" font-size="20px" font-style="normal" font-weight="700" text-decoration="" line-height="22.75px" x="130" y="18">Package</text></g><g transform="translate(630,41) matrix(1,0,0,1,0,0) translate(-630,-41)"><g/></g><g transform="translate(630,41) matrix(1,0,0,1,0,0) translate(-630,-41)"><g/></g><g transform="translate(630,41) matrix(1,0,0,1,0,0) translate(-630,-41)"><g/></g></g></g></svg>