<?xml version="1.0" encoding="utf-8"?>
<!-- Generator: Adobe Illustrator 18.1.1, SVG Export Plug-In . SVG Version: 6.00 Build 0)  -->
<svg version="1.1" id="Layer_1" xmlns="http://www.w3.org/2000/svg" xmlns:xlink="http://www.w3.org/1999/xlink" x="0px" y="0px"
	 viewBox="0 0 225.6 40.8" enable-background="new 0 0 225.6 40.8" xml:space="preserve">
<path fill="#00C2F3" d="M10.3,3.5c0,0,12.1-3,16,7.7l-3.6,0L10.3,3.5"/>
<path fill="#00C2F3" d="M23.9,18.8l-0.8,0c-0.8,3.6-3.7,6.4-7.2,6.3c-4,0-7.3-3.7-7.2-8.2S12,8.7,16,8.7c0.3,0,0.5,0,0.8,0L18,8.1
	l-2.5-2.8C9.2,5.3,4,10.6,4,17.1c0,6.6,5,11.9,11.3,12c5,0,9.3-3.3,10.8-7.9L23.9,18.8z"/>
<path fill="#0077C0" d="M23.7,18.8l-3.3,0c0,0-1.3,4.6-5.8,6.2c0,0,0.1,0.1,1.7,0.1C18.5,25.1,22.1,24.2,23.7,18.8z"/>
<polygon fill="#00609C" points="22.7,11.2 26.3,11.2 23.5,13.6 19.5,13.6 "/>
<path fill="#0077C0" d="M12.4,7.3c3.2,0,6.1,2.7,7.1,6.3l3.3-2.4C22,7.5,19,4.6,15.4,3.7c0,0,0,0,0,0c-1-0.3-2-0.4-3-0.4
	C5.6,3.2,0,9,0,16.1c0,5,2.7,9.4,6.7,11.5C7,27.7,7.2,27.8,7.5,28c4.1,2,9.7,0.9,9.7,0.9c-4.2-0.4-6.7-1.8-7.9-2.5
	c-2.8-2.4-4.5-6-4.5-10c0-0.1,0-0.3,0-0.4l0-0.1c0-1,0.2-2,0.5-3C6.4,9.4,9.2,7.3,12.4,7.3z"/>
<g fill="#FFFFFF">
	<rect x="30.9" y="3.6" fill="none" width="189.5" height="31.1"/>
	<path d="M49.3,26.5c-1.7,0.9-3.8,1.3-6.2,1.3c-3.2,0-5.8-1-7.7-3.1c-1.9-2.1-2.9-4.8-2.9-8.2c0-3.6,1.1-6.5,3.3-8.8
		c2.2-2.2,4.9-3.3,8.3-3.3c2.1,0,3.9,0.3,5.3,0.9v2.8c-1.6-0.9-3.4-1.4-5.4-1.4c-2.6,0-4.7,0.9-6.3,2.6c-1.6,1.7-2.4,4.1-2.4,7
		c0,2.8,0.8,5,2.3,6.6c1.5,1.6,3.5,2.5,5.9,2.5c2.3,0,4.2-0.5,5.9-1.5V26.5z"/>
	<path d="M60.3,27.9c-2.4,0-4.3-0.8-5.7-2.3c-1.4-1.5-2.1-3.5-2.1-6c0-2.7,0.7-4.8,2.2-6.4s3.5-2.3,6-2.3c2.4,0,4.3,0.7,5.6,2.2
		s2,3.5,2,6.2c0,2.6-0.7,4.6-2.2,6.2C64.7,27.1,62.7,27.9,60.3,27.9z M60.5,13.1c-1.7,0-3,0.6-3.9,1.7c-1,1.1-1.5,2.7-1.5,4.7
		c0,1.9,0.5,3.4,1.5,4.5s2.3,1.7,3.9,1.7c1.7,0,3-0.5,3.9-1.6c0.9-1.1,1.3-2.6,1.3-4.6c0-2-0.5-3.6-1.3-4.7
		C63.4,13.7,62.1,13.1,60.5,13.1z"/>
	<path d="M95.4,27.5h-2.6v-9.3c0-1.8-0.3-3.1-0.8-3.9c-0.6-0.8-1.5-1.2-2.8-1.2c-1.1,0-2,0.5-2.8,1.5c-0.8,1-1.2,2.2-1.2,3.6v9.2
		h-2.6v-9.6c0-3.2-1.2-4.8-3.7-4.8c-1.1,0-2.1,0.5-2.8,1.4S75,16.7,75,18.3v9.2h-2.6V11.3H75v2.6h0.1c1.1-2,2.8-2.9,5-2.9
		c1.1,0,2.1,0.3,2.9,0.9c0.8,0.6,1.4,1.4,1.7,2.4c1.2-2.2,3-3.3,5.4-3.3c3.6,0,5.3,2.2,5.3,6.6V27.5z"/>
	<path d="M103,25.1L103,25.1l-0.1,9.8h-2.6V11.3h2.6v2.8h0.1c1.3-2.1,3.1-3.2,5.6-3.2c2.1,0,3.7,0.7,4.9,2.2
		c1.2,1.4,1.8,3.4,1.8,5.8c0,2.7-0.7,4.9-2,6.5c-1.3,1.6-3.1,2.4-5.4,2.4C105.7,27.9,104.1,26.9,103,25.1z M102.9,18.6v2.3
		c0,1.3,0.4,2.5,1.3,3.4c0.9,0.9,2,1.4,3.3,1.4c1.6,0,2.8-0.6,3.7-1.8c0.9-1.2,1.3-2.9,1.3-5c0-1.8-0.4-3.2-1.2-4.2
		c-0.8-1-2-1.5-3.4-1.5c-1.5,0-2.7,0.5-3.6,1.6C103.3,15.7,102.9,17,102.9,18.6z"/>
	<path d="M132.4,27.5h-2.6v-2.6h-0.1c-1.1,2-2.7,2.9-5,2.9c-3.9,0-5.8-2.3-5.8-6.9v-9.7h2.6v9.2c0,3.4,1.3,5.1,3.9,5.1
		c1.3,0,2.3-0.5,3.1-1.4c0.8-0.9,1.2-2.1,1.2-3.7v-9.3h2.6V27.5z"/>
	<path d="M145.1,27.3c-0.6,0.3-1.4,0.5-2.4,0.5c-2.8,0-4.2-1.6-4.2-4.7v-9.6h-2.8v-2.2h2.8V7.4l2.6-0.8v4.8h4.1v2.2H141v9.1
		c0,1.1,0.2,1.9,0.6,2.3s1,0.7,1.8,0.7c0.7,0,1.2-0.2,1.7-0.5V27.3z"/>
	<path d="M161.5,20h-11.4c0,1.8,0.5,3.2,1.5,4.2s2.2,1.5,3.8,1.5c1.8,0,3.5-0.6,5-1.8v2.4c-1.4,1-3.3,1.5-5.6,1.5
		c-2.3,0-4.1-0.7-5.4-2.2s-2-3.5-2-6.2c0-2.5,0.7-4.6,2.1-6.1s3.2-2.4,5.3-2.4c2.1,0,3.8,0.7,4.9,2.1c1.2,1.4,1.7,3.3,1.7,5.7V20z
		 M158.9,17.8c0-1.5-0.4-2.7-1.1-3.5c-0.7-0.8-1.7-1.2-3-1.2c-1.2,0-2.3,0.4-3.1,1.3c-0.9,0.9-1.4,2-1.6,3.4H158.9z"/>
	<path d="M180.8,26.7c-1.8,0.8-3.7,1.1-5.7,1.1c-3.1,0-5.6-1-7.6-3.1c-2-2.1-2.9-4.8-2.9-8.1c0-3.7,1.1-6.6,3.2-8.8
		c2.1-2.2,4.8-3.3,8.1-3.3c1.7,0,3.4,0.3,5,0.8V7c-1.6-0.7-3.3-1.1-5-1.1c-2.8,0-5.2,1-6.9,2.9c-1.8,1.9-2.7,4.5-2.7,7.7
		c0,3.1,0.8,5.5,2.5,7.3c1.7,1.8,3.9,2.7,6.5,2.7c2.1,0,4-0.4,5.6-1.2V26.7z"/>
	<path d="M187,24.6L187,24.6l-0.1,10.3h-1.5V11.3h1.5v3.3h0.1c0.6-1.2,1.4-2.1,2.5-2.8c1.1-0.6,2.3-1,3.6-1c2.1,0,3.7,0.7,4.8,2.1
		c1.2,1.4,1.7,3.3,1.7,5.8c0,2.7-0.7,4.9-2,6.6c-1.3,1.7-3.1,2.5-5.2,2.5C189.9,27.9,188.2,26.8,187,24.6z M186.9,18.6v2
		c0,1.6,0.5,3,1.5,4.2c1,1.2,2.4,1.7,4,1.7c1.7,0,3-0.7,4-2.1s1.5-3.3,1.5-5.6c0-2-0.5-3.6-1.4-4.8c-0.9-1.2-2.2-1.8-3.8-1.8
		c-1.9,0-3.3,0.6-4.4,1.9C187.5,15.4,186.9,16.9,186.9,18.6z"/>
	<path d="M205.1,24.6L205.1,24.6L205,34.9h-1.5V11.3h1.5v3.3h0.1c0.6-1.2,1.4-2.1,2.5-2.8c1.1-0.6,2.3-1,3.6-1
		c2.1,0,3.7,0.7,4.8,2.1c1.2,1.4,1.7,3.3,1.7,5.8c0,2.7-0.7,4.9-2,6.6c-1.3,1.7-3.1,2.5-5.2,2.5C208,27.9,206.3,26.8,205.1,24.6z
		 M205,18.6v2c0,1.6,0.5,3,1.5,4.2c1,1.2,2.4,1.7,4,1.7c1.7,0,3-0.7,4-2.1s1.5-3.3,1.5-5.6c0-2-0.5-3.6-1.4-4.8
		c-0.9-1.2-2.2-1.8-3.8-1.8c-1.9,0-3.3,0.6-4.4,1.9C205.6,15.4,205,16.9,205,18.6z"/>
</g>
<g fill="#FFFFFF">
	<path d="M220.5,8.7v2.4h-0.3V8.7h-0.9V8.4h2.2v0.3H220.5z M224.4,11.2V9h0l-0.9,2.2h-0.3L222.2,9h0v2.2h-0.3V8.4h0.5l0.9,2.3h0
		l1-2.3h0.4v2.7H224.4z"/>
</g>
<path fill="#00C2F3" d="M9.4,26.4c0,0,1.9,1.8,6.5,2.7l1.4-0.2l-2.2-0.7L9.4,26.4z"/>
<g>
</g>
<g>
</g>
<g>
</g>
<g>
</g>
<g>
</g>
<g>
</g>
</svg>
